<svg version="1.2" xmlns="http://www.w3.org/2000/svg" width="32" height="32"><path d="M7 0h18c3.9 0 7 3.1 7 7v18c0 3.9-3.1 7-7 7H7c-3.9 0-7-3.1-7-7V7c0-3.9 3.1-7 7-7z" style="fill:#3a9abf"/><path d="M16 28.2C9.2 28.2 3.6 22.8 3.6 16 3.6 9.2 9.2 3.8 16 3.8c6.8 0 12.4 5.4 12.4 12.2 0 6.8-5.6 12.2-12.4 12.2z" style="fill:#e6f4f1"/><path d="m15.8 13.1 1.3 1.3 1.8 1.8q.9.9 1.9 2 1.1 1 2.1 2l1.8 1.8q.9.8 1.5 1.4v5.2l-4.4-4.4q-1.3.9-2.8 1.4-1.5.5-3.2.5-2.1 0-4-.8-1.8-.8-3.1-2.2-1.4-1.4-2.2-3.3-.7-1.9-.7-4 0-2.2.7-4 .8-1.9 2.2-3.3 1.3-1.4 3.1-2.2 1.9-.8 4-.8 2.2 0 4.1.8 1.9.8 3.2 2.2 1.5 1.4 2.3 3.3.8 1.8.8 4 0 .8-.1 1.5-.1.8-.4 1.4l-4.1-.5q.2-.6.3-1.2.1-.6.1-1.2 0-1.4-.4-2.6-.5-1.2-1.4-2.1-.8-.9-2-1.4-1.1-.5-2.4-.5-1.3 0-2.4.5-1 .5-1.8 1.4-.8.9-1.2 2.1-.5 1.2-.5 2.6 0 1.4.5 2.6.4 1.2 1.2 2.1.8.9 1.8 1.4 1.1.5 2.4.5.9 0 1.7-.2.8-.3 1.6-.8l-3.3-3.2z" style="fill:#000"/></svg>